<svg id="Icons_Fill" data-name="Icons Fill" xmlns="http://www.w3.org/2000/svg" viewBox="0 0 15 15"><defs><style>.cls-1{fill:#1f1f1f;}</style></defs><title>expand-sm</title><polygon class="cls-1" points="5 9.3 1 13.3 1 10 0 10 0 15 5 15 5 14 1.7 14 5.7 10 5 9.3"/><polygon class="cls-1" points="14 13.3 10 9.3 9.3 10 13.3 14 10 14 10 15 15 15 15 10 14 10 14 13.3"/><polygon class="cls-1" points="10 0 10 1 13.3 1 9.3 5 10 5.7 14 1.7 14 5 15 5 15 0 10 0"/><polygon class="cls-1" points="5 1 5 0 0 0 0 5 1 5 1 1.7 5 5.7 5.7 5 1.7 1 5 1"/></svg>