<svg xmlns="http://www.w3.org/2000/svg" viewBox="0 0 32 32"><defs><style>.a{fill:#1f1f1f;}</style></defs><title>heart</title><path class="a" d="M16,25.78,7.7,17.13a6.2,6.2,0,0,1,0-8.52A5.1,5.1,0,0,1,11.4,7h0a5.11,5.11,0,0,1,3.7,1.6l.9.93.9-.93A5.1,5.1,0,0,1,20.6,7h0a5.1,5.1,0,0,1,3.7,1.6h0a6.2,6.2,0,0,1,0,8.52ZM11.4,8h0a4.11,4.11,0,0,0-3,1.29,5.19,5.19,0,0,0,0,7.13L16,24.34l7.58-7.89a5.19,5.19,0,0,0,0-7.13h0A4.1,4.1,0,0,0,20.6,8h0a4.11,4.11,0,0,0-3,1.29L16,11,14.38,9.31A4.12,4.12,0,0,0,11.4,8Z"/></svg>