<?xml version="1.0" standalone="no"?>
<!DOCTYPE svg PUBLIC "-//W3C//DTD SVG 1.1//EN" "http://www.w3.org/Graphics/SVG/1.1/DTD/svg11.dtd" >
<svg xmlns="http://www.w3.org/2000/svg">
<metadata>Generated by IcoMoon</metadata>
<defs>
<font id="fraxinus" horiz-adv-x="1024">
<font-face units-per-em="1024" ascent="960" descent="-64" />
<missing-glyph horiz-adv-x="1024" />
<glyph unicode="&#x20;" horiz-adv-x="512" d="" />
<glyph unicode="&#xe900;" glyph-name="menu" d="M192 672h640v-32h-640v32zM192 448h640v-32h-640v32zM192 224h480v-32h-480v32z" />
<glyph unicode="&#xe901;" glyph-name="search" d="M448 256c-141.385 0-256 114.615-256 256s114.615 256 256 256c141.385 0 256-114.615 256-256v0c0-141.385-114.615-256-256-256v0zM448 736c-123.712 0-224-100.288-224-224s100.288-224 224-224c123.712 0 224 100.288 224 224v0c0 123.712-100.288 224-224 224v0zM612.74 324.627l22.627 22.627 192.107-192.107-22.627-22.627-192.107 192.107z" />
<glyph unicode="&#xe902;" glyph-name="user" d="M512 448c-88.366 0-160 71.634-160 160s71.634 160 160 160c88.366 0 160-71.634 160-160v0c0-88.366-71.634-160-160-160v0zM512 736c-70.692 0-128-57.308-128-128s57.308-128 128-128c70.692 0 128 57.308 128 128v0c0 70.692-57.308 128-128 128v0zM800 128h-576v64c0 159.058 128.942 288 288 288s288-128.942 288-288v0zM256 160h512v32c0 141.385-114.615 256-256 256s-256-114.615-256-256v0z" />
<glyph unicode="&#xe903;" glyph-name="heart" d="M512 135.040l-265.6 276.8c-33.593 35.465-54.249 83.48-54.249 136.32s20.656 100.855 54.335 136.411l-0.085-0.091c29.712 31.604 71.734 51.342 118.367 51.52h0.033c46.615-0.13 88.623-19.744 118.329-51.125l0.071-0.075 28.8-29.76 28.8 29.76c29.757 31.486 71.778 51.111 118.384 51.2h0.016c46.622-0.089 88.643-19.714 118.327-51.122l0.073-0.078c33.593-35.465 54.249-83.48 54.249-136.32s-20.656-100.855-54.335-136.411l0.085 0.091zM364.8 704v0c-0.095 0-0.209 0-0.322 0-37.671 0-71.642-15.838-95.619-41.217l-0.059-0.063c-28.102-29.684-45.381-69.864-45.381-114.080s17.279-84.396 45.453-114.157l-0.072 0.077 243.2-253.44 242.56 252.48c28.102 29.684 45.381 69.864 45.381 114.080s-17.279 84.396-45.453 114.157l0.072-0.077c-23.81 25.754-57.666 41.92-95.302 42.24h-0.058c-0.095 0-0.209 0-0.322 0-37.671 0-71.642-15.838-95.619-41.217l-51.259-54.783-51.84 54.080c-23.896 25.575-57.725 41.608-95.303 41.92h-0.057z" />
<glyph unicode="&#xe904;" glyph-name="heart-filled" d="M512 135.040l-265.6 276.8c-33.593 35.465-54.249 83.48-54.249 136.32s20.656 100.855 54.335 136.411l-0.085-0.091c29.712 31.604 71.734 51.342 118.367 51.52h0.033c46.622-0.089 88.643-19.714 118.327-51.122l0.073-0.078 28.8-29.76 28.8 29.76c29.76 31.452 71.794 51.026 118.4 51.026s88.64-19.574 118.329-50.95l0.071-0.076c33.593-35.465 54.249-83.48 54.249-136.32s-20.656-100.855-54.335-136.411l0.085 0.091z" />
<glyph unicode="&#xe905;" glyph-name="cart" d="M832 128h-640v448h640zM224 160h576v384h-576zM672 560h-32v48c0 70.692-57.308 128-128 128s-128-57.308-128-128v0-48h-32v48c0 88.366 71.634 160 160 160s160-71.634 160-160v0z" />
<glyph unicode="&#xe906;" glyph-name="search-sm" d="M419.84 120.32c-231.871 0-419.84 187.969-419.84 419.84s187.969 419.84 419.84 419.84c231.871 0 419.84-187.969 419.84-419.84v0c-0.182-231.798-188.042-419.658-419.823-419.84h-0.017zM419.84 896c-196.172 0-355.2-159.028-355.2-355.2s159.028-355.2 355.2-355.2c196.172 0 355.2 159.028 355.2 355.2v0c-0.182 196.098-159.101 355.018-355.182 355.2h-0.018zM672.531 241.788l45.707 45.707 305.923-305.923-45.707-45.707-305.923 305.923z" />
<glyph unicode="&#xe907;" glyph-name="heart-sm" d="M512-39.040l-424.32 441.92c-54.256 57.218-87.621 134.713-87.621 220s33.366 162.782 87.756 220.143l-0.135-0.143c48.277 50.894 116.394 82.56 191.907 82.56 0.033 0 0.065 0 0.098 0h-0.005c75.54-0.013 143.682-31.674 191.892-82.445l0.108-0.115 40.32-42.88 40.32 41.92c48.284 50.952 116.44 82.658 192 82.658s143.716-31.706 191.888-82.539l0.112-0.119c54.256-57.218 87.621-134.713 87.621-220s-33.366-162.782-87.756-220.143l0.135 0.143zM279.36 861.44v0c-0.326 0.002-0.712 0.003-1.099 0.003-56.724 0-107.95-23.539-144.443-61.382l-0.058-0.061c-43.404-45.774-70.097-107.77-70.097-176s26.692-130.226 70.205-176.115l-0.108 0.115 378.24-394.88 378.24 394.88c43.404 45.774 70.097 107.77 70.097 176s-26.692 130.226-70.205 176.115l0.108-0.115c-36.624 38.873-88.445 63.078-145.92 63.078s-109.296-24.205-145.826-62.977l-0.094-0.101-86.4-91.52-86.4 91.52c-36.652 37.91-87.965 61.445-144.775 61.445-0.515 0-1.030-0.002-1.544-0.006h0.079z" />
<glyph unicode="&#xe908;" glyph-name="heart-filled-sm" d="M512-39.040l-424.64 441.92c-54.256 57.218-87.621 134.713-87.621 220s33.366 162.782 87.756 220.143l-0.135-0.143c48.277 50.894 116.394 82.56 191.907 82.56 0.033 0 0.065 0 0.098 0h-0.005c75.54-0.013 143.682-31.674 191.892-82.445l0.108-0.115 40.64-42.88 40.32 41.92c48.284 50.952 116.44 82.658 192 82.658s143.716-31.706 191.888-82.539l0.112-0.119c54.256-57.218 87.621-134.713 87.621-220s-33.366-162.782-87.756-220.143l0.135 0.143z" />
<glyph unicode="&#xe909;" glyph-name="external-link-sm" d="M455.759 439.032l366.025 363.479 45.097-45.413-366.025-363.479-45.097 45.413zM896 448h-64v320h-320v64h384v-384zM704 64h-576v576h320v-64h-256v-448h448v256h64v-320z" />
<glyph unicode="&#xe90a;" glyph-name="checkmark-xs" d="M372.8 37.12l-370.88 362.56 90.56 92.8 272.64-266.24 562.56 645.44 97.92-85.44-652.8-749.12z" />
<glyph unicode="&#xe90b;" glyph-name="enter-sm" d="M928 416h-768v64h704v224h64v-288zM371.84 170.56l-276.48 276.48 276.48 276.48 45.12-45.44-231.040-231.040 231.040-231.36-45.12-45.12z" />
<glyph unicode="&#xe90c;" glyph-name="star-sm" d="M512 816l96-263.36 288-5.76-230.4-168.32 83.84-266.88-237.44 160-237.44-160 83.84 266.88-230.4 168.64 288 5.76z" />
<glyph unicode="&#xe90d;" glyph-name="close" d="M191.966 744.872l22.854 22.854 617.050-617.050-22.854-22.854-617.050 617.050zM191.966 151.128l617.050 617.050 22.854-22.854-617.050-617.050-22.854 22.854z" />
<glyph unicode="&#xe90e;" glyph-name="close-sm" d="M159.835 753.47l46.386 46.386 657.553-657.553-46.386-46.386-657.553 657.553zM159.835 142.53l657.553 657.553 46.386-46.386-657.553-657.553-46.386 46.386z" />
<glyph unicode="&#xe90f;" glyph-name="arrow-down-sm" d="M480 928h64v-896h-64v896zM276.8 294.4l235.2-235.2 235.2 235.2 45.76-45.44-280.96-280.96-280.96 280.96 45.76 45.44z" />
<glyph unicode="&#xe910;" glyph-name="arrow-left-sm" d="M96 480h896v-64h-896v64zM358.72 683.2l-235.52-235.2 235.52-235.2-45.76-45.76-280.96 280.96 280.96 280.96 45.76-45.76z" />
<glyph unicode="&#xe911;" glyph-name="arrow-right-sm" d="M32 480h896v-64h-896v64zM665.6 212.8l235.2 235.2-235.2 235.2 45.44 45.76 280.96-280.96-280.96-280.96-45.44 45.76z" />
<glyph unicode="&#xe912;" glyph-name="arrow-up-sm" d="M480 864h64v-896h-64v896zM747.2 601.28l-235.2 235.52-235.2-235.52-45.76 45.76 280.96 280.96 280.96-280.96-45.76-45.76z" />
<glyph unicode="&#xe913;" glyph-name="chevron-down-xs" d="M512 130.56l-512 497.92 90.88 93.44 421.12-409.28 421.12 409.28 90.88-93.44-512-497.92z" />
<glyph unicode="&#xe914;" glyph-name="chevron-left-xs" d="M692.48-64l-497.92 512 497.92 512 93.44-90.88-409.28-421.12 409.28-421.12-93.44-90.88z" />
<glyph unicode="&#xe915;" glyph-name="chevron-right-xs" d="M331.52-64l-93.44 90.88 409.28 421.12-409.28 421.12 93.44 90.88 497.92-512-497.92-512z" />
<glyph unicode="&#xe916;" glyph-name="chevron-up-xs" d="M933.12 174.080l-421.12 409.28-421.12-409.28-90.88 93.44 512 497.92 512-497.92-90.88-93.44z" />
<glyph unicode="&#xe917;" glyph-name="chevron-down-sm" d="M512 159.68l-480 466.56 44.8 46.080 435.2-423.36 435.52 423.36 44.48-46.080-480-466.56z" />
<glyph unicode="&#xe918;" glyph-name="chevron-left-sm" d="M255.68 448l466.56 480 46.080-44.8-423.36-435.2 423.36-435.52-46.080-44.48-466.56 480z" />
<glyph unicode="&#xe919;" glyph-name="chevron-right-sm" d="M768.32 448l-466.56-480-46.080 44.48 423.36 435.52-423.36 435.2 46.080 44.8 466.56-480z" />
<glyph unicode="&#xe91a;" glyph-name="chevron-up-sm" d="M512 704.32l480-466.56-44.48-46.080-435.52 423.36-435.2-423.36-44.8 46.080 480 466.56z" />
<glyph unicode="&#xe91b;" glyph-name="chevron-down" d="M512 202.88l-480 466.56 22.72 23.68 457.28-444.48 457.28 444.48 22.72-23.68-480-466.56z" />
<glyph unicode="&#xe91c;" glyph-name="chevron-left" d="M266.88 448l466.56 480 23.68-22.72-444.48-457.28 444.48-457.28-23.68-22.72-466.56 480z" />
<glyph unicode="&#xe91d;" glyph-name="chevron-right" d="M757.12 448l-466.56-480-23.68 22.72 444.48 457.28-444.48 457.28 23.68 22.72 466.56-480z" />
<glyph unicode="&#xe91e;" glyph-name="chevron-up" d="M512 693.12l480-466.56-22.72-23.68-457.28 444.48-457.28-444.48-22.72 23.68 480 466.56z" />
<glyph unicode="&#xe91f;" glyph-name="chevron-down-lg" d="M512 217.28l-463.040 450.24 11.2 11.2 451.84-439.36 452.16 439.36 10.88-11.2-463.040-450.24z" />
<glyph unicode="&#xe920;" glyph-name="chevron-left-lg" d="M728.64-15.040l-450.24 463.040 450.24 463.040 11.52-10.88-439.36-452.16 439.36-452.16-11.52-10.88z" />
<glyph unicode="&#xe921;" glyph-name="chevron-right-lg" d="M295.36-15.040l-11.52 10.88 439.36 452.16-439.36 452.16 11.52 10.88 450.24-463.040-450.24-463.040z" />
<glyph unicode="&#xe922;" glyph-name="chevron-up-lg" d="M964.16 217.28l-452.16 439.36-451.84-439.36-11.2 11.2 463.040 450.24 463.040-450.24-10.88-11.2z" />
</font>
</defs>
</svg>
